<svg width="41" height="32" viewBox="0 0 41 32" fill="none" xmlns="http://www.w3.org/2000/svg">
<g clip-path="url(#clip0_3_32)">
<path d="M8.38233 0C6.09104 0 4.39551 2.00549 4.47143 4.18039C4.54437 6.2698 4.44963 8.97616 3.76837 11.1831C3.08508 13.3964 1.92931 14.7984 0.041626 14.9785V17.0108C1.92931 17.1909 3.08508 18.5929 3.76837 20.8064C4.44963 23.0133 4.54437 25.7194 4.47143 27.8089C4.39551 29.9835 6.09104 31.9893 8.38265 31.9893H31.8608C34.1522 31.9893 35.8473 29.9838 35.7714 27.8089C35.6986 25.7195 35.7932 23.0133 36.4744 20.8064C37.1582 18.5931 38.3108 17.1907 40.1985 17.0108V14.9785C38.3108 14.7984 37.1582 13.3964 36.4746 11.1831C35.7932 8.97647 35.6986 6.26996 35.7714 4.18039C35.8473 2.0058 34.1522 0 31.8608 0H8.38202H8.38233ZM27.2667 19.6915C27.2667 22.6863 25.033 24.5024 21.326 24.5024H15.0154C14.8349 24.5024 14.6619 24.4307 14.5343 24.303C14.4066 24.1754 14.335 24.0023 14.335 23.8218V8.16753C14.3349 8.07814 14.3525 7.98961 14.3867 7.90702C14.4209 7.82442 14.4711 7.74937 14.5343 7.68615C14.5975 7.62293 14.6725 7.57278 14.7551 7.53857C14.8377 7.50436 14.9262 7.48675 15.0156 7.48675H21.2899C24.3809 7.48675 26.4095 9.16126 26.4095 11.7319C26.4095 13.5363 25.0448 15.1517 23.3063 15.4345V15.5288C25.6732 15.7884 27.2667 17.4275 27.2667 19.6915ZM20.6377 9.64439H17.0397V14.7267H20.0703C22.4129 14.7267 23.7048 13.7834 23.7048 12.0971C23.7048 10.517 22.5938 9.64439 20.6377 9.64439ZM17.0397 16.7434V22.3442H20.7703C23.2092 22.3442 24.5014 21.3655 24.5014 19.5261C24.5014 17.6864 23.1732 16.7431 20.6134 16.7431H17.0397V16.7434Z" fill="#7E13F8"/>
</g>
<defs>
<clipPath id="clip0_3_32">
<rect width="40.16" height="32" fill="white" transform="translate(0.0400391)"/>
</clipPath>
</defs>
</svg>
