<svg width="33" height="32" viewBox="0 0 33 32" fill="none" xmlns="http://www.w3.org/2000/svg">
<path d="M6.10202 27.201L3.85602 2H28.544L26.295 27.197L16.185 30L6.10202 27.201Z" fill="#1572B6"/>
<path d="M16.2 27.858L24.37 25.593L26.292 4.061H16.2V27.858Z" fill="#33A9DC"/>
<path d="M16.2 13.191H20.29L20.572 10.026H16.2V6.935H23.95L23.876 7.764L23.117 16.282H16.2V13.191Z" fill="white"/>
<path d="M16.219 21.218L16.205 21.222L12.763 20.292L12.543 17.827H9.44L9.873 22.68L16.204 24.438L16.219 24.434V21.218Z" fill="#EBEBEB"/>
<path d="M20.027 16.151L19.655 20.29L16.208 21.22V24.436L22.544 22.68L22.591 22.158L23.128 16.151H20.027Z" fill="white"/>
<path d="M16.211 6.935V10.026H8.74502L8.68302 9.331L8.54202 7.764L8.46802 6.935H16.211ZM16.2 13.191V16.282H12.801L12.739 15.587L12.599 14.02L12.525 13.191H16.2Z" fill="#EBEBEB"/>
</svg>
