<svg width="33" height="32" viewBox="0 0 33 32" fill="none" xmlns="http://www.w3.org/2000/svg">
<path d="M6.10204 27.201L3.85504 2H28.545L26.295 27.197L16.185 30L6.10204 27.201Z" fill="#E44F26"/>
<path d="M16.2 27.858L24.37 25.593L26.292 4.061H16.2V27.858Z" fill="#F1662A"/>
<path d="M16.2 13.407H12.11L11.828 10.242H16.2V7.151H8.45001L8.52401 7.981L9.28301 16.498H16.2V13.407ZM16.2 21.434L16.186 21.438L12.744 20.509L12.524 18.044H9.42101L9.85401 22.896L16.186 24.654L16.2 24.65V21.434Z" fill="#EBEBEB"/>
<path d="M16.189 13.407V16.498H19.995L19.637 20.507L16.189 21.437V24.653L22.526 22.896L22.572 22.374L23.298 14.237L23.374 13.407H16.189ZM16.189 7.151V10.242H23.655L23.717 9.548L23.858 7.981L23.932 7.151H16.189Z" fill="white"/>
</svg>
