<svg width="33" height="32" viewBox="0 0 33 32" fill="none" xmlns="http://www.w3.org/2000/svg">
<path d="M2.20001 2H30.2V30H2.20001V2Z" fill="#F5DE19"/>
<path d="M21.009 23.875C21.2476 24.3596 21.6182 24.7669 22.0783 25.05C22.5383 25.3331 23.0689 25.4804 23.609 25.475C24.699 25.475 25.396 24.93 25.396 24.175C25.396 23.275 24.68 22.953 23.48 22.428L22.822 22.146C20.922 21.337 19.662 20.324 19.662 18.182C19.662 16.209 21.162 14.706 23.515 14.706C24.2767 14.651 25.0378 14.8215 25.7032 15.1962C26.3687 15.5709 26.9091 16.1332 27.257 16.813L25.2 18.128C25.066 17.7909 24.8328 17.5025 24.5311 17.3011C24.2295 17.0996 23.8737 16.9946 23.511 17C23.3528 16.9842 23.193 17.0014 23.0418 17.0508C22.8906 17.1001 22.7514 17.1804 22.6329 17.2865C22.5145 17.3926 22.4194 17.5223 22.3538 17.6671C22.2883 17.812 22.2536 17.969 22.252 18.128C22.252 18.917 22.741 19.237 23.87 19.728L24.528 20.01C26.764 20.969 28.028 21.946 28.028 24.143C28.028 26.512 26.167 27.81 23.668 27.81C22.6943 27.872 21.7235 27.651 20.8726 27.1735C20.0218 26.696 19.3273 25.9824 18.873 25.119L21.009 23.875ZM11.714 24.103C12.127 24.836 12.503 25.456 13.407 25.456C14.271 25.456 14.817 25.118 14.817 23.803V14.856H17.448V23.838C17.448 26.562 15.848 27.802 13.519 27.802C12.6958 27.847 11.8782 27.6418 11.1737 27.2135C10.4692 26.7851 9.91088 26.1536 9.57202 25.402L11.714 24.103Z" fill="black"/>
</svg>
