<svg width="32" height="32" viewBox="0 0 32 32" fill="none" xmlns="http://www.w3.org/2000/svg">
<g clip-path="url(#clip0_3_30)">
<path d="M31.0177 7.22668C31.0292 7.26922 31.0351 7.3131 31.0351 7.35722V14.214C31.0351 14.3931 30.9394 14.5586 30.7839 14.6476L25.0291 17.9612V24.5285C25.0291 24.6164 25.006 24.7027 24.9621 24.7789C24.9183 24.855 24.8552 24.9183 24.7791 24.9623L12.766 31.8778C12.7385 31.8933 12.7086 31.9033 12.6785 31.9141C12.6672 31.9177 12.6567 31.9246 12.6448 31.9278C12.5608 31.9499 12.4726 31.9499 12.3886 31.9278C12.3748 31.9241 12.3623 31.9165 12.3492 31.9115C12.3217 31.9015 12.2929 31.8927 12.2668 31.8778L0.256095 24.9622C0.179772 24.9184 0.116354 24.8552 0.0722376 24.7791C0.0281212 24.7029 0.00486728 24.6165 0.00482178 24.5285L0.00482178 3.95832C0.00482178 3.91322 0.0111248 3.86947 0.0222763 3.82704C0.0260339 3.81262 0.0347612 3.79953 0.0398521 3.7851C0.0491854 3.75892 0.0580339 3.73201 0.0717309 3.70765C0.0810642 3.69141 0.0947612 3.67832 0.106034 3.66329C0.120458 3.64329 0.133549 3.62268 0.150398 3.6051C0.164822 3.5908 0.18361 3.58013 0.199852 3.56765C0.218034 3.55262 0.234155 3.53638 0.254761 3.5245H0.255367L6.26094 0.0668004C6.33699 0.0230345 6.4232 0 6.51094 0C6.59869 0 6.68489 0.0230345 6.76094 0.0668004L12.7665 3.5245H12.7677C12.7877 3.5371 12.8047 3.55262 12.8228 3.56704C12.839 3.57953 12.8572 3.5908 12.8715 3.60462C12.8891 3.62268 12.9015 3.64341 12.9165 3.66329C12.9271 3.67832 12.9415 3.69141 12.9503 3.70765C12.9646 3.73262 12.9727 3.75892 12.9828 3.78522C12.9877 3.79953 12.9965 3.81262 13.0002 3.82765C13.0117 3.87019 13.0177 3.91419 13.0178 3.95832V16.8061L18.0222 13.9245V7.35662C18.0222 7.31298 18.0285 7.2685 18.0397 7.22668C18.0441 7.21165 18.0522 7.19856 18.0572 7.18426C18.0672 7.15795 18.076 7.13092 18.0897 7.10668C18.099 7.09044 18.1127 7.07735 18.1235 7.06232C18.1384 7.04232 18.1509 7.02171 18.1683 7.00413C18.1829 6.98983 18.2009 6.97916 18.2172 6.96668C18.236 6.95165 18.2522 6.93541 18.2722 6.92353H18.2728L24.279 3.46583C24.355 3.42201 24.4412 3.39894 24.529 3.39894C24.6168 3.39894 24.703 3.42201 24.779 3.46583L30.7846 6.92353C30.8058 6.93601 30.822 6.95165 30.8408 6.96595C30.8563 6.97856 30.8745 6.98983 30.8889 7.00353C30.9064 7.02171 30.9189 7.04232 30.9338 7.06232C30.9452 7.07735 30.9589 7.09044 30.9677 7.10668C30.982 7.13092 30.9902 7.15795 31.0001 7.18426C31.0058 7.19856 31.0139 7.21165 31.0177 7.22668ZM30.034 13.9246V8.2228L27.9323 9.43262L25.0289 11.1044V16.8062L30.0346 13.9246H30.034ZM24.0285 24.2392V18.5333L21.1725 20.1645L13.0172 24.819V30.5783L24.0285 24.2389V24.2392ZM1.00591 4.82377V24.2392L12.016 30.5778V24.8196L6.26422 21.5644L6.2624 21.5632L6.25997 21.562C6.24058 21.5507 6.22422 21.5344 6.20616 21.5207C6.1904 21.5081 6.17234 21.4982 6.15864 21.4844L6.15743 21.4826C6.14119 21.4669 6.12991 21.4475 6.11622 21.4301C6.10361 21.4131 6.0887 21.3988 6.07864 21.3813L6.07803 21.3794C6.06676 21.3607 6.05985 21.3382 6.05173 21.317C6.04361 21.2982 6.03306 21.2806 6.02797 21.2607V21.2601C6.02179 21.2364 6.02058 21.2113 6.01803 21.1869C6.01561 21.1683 6.01052 21.1495 6.01052 21.1307V7.70547L3.10761 6.03298L1.00591 4.8245V4.82377ZM6.51161 1.07795L1.50773 3.95832L6.5104 6.83856L11.5135 3.95759L6.5104 1.07795H6.51161ZM9.11379 19.0535L12.0166 17.3824V4.82377L9.91513 6.03371L7.01149 7.70535V20.2639L9.11379 19.0535ZM24.5289 4.47698L19.5258 7.35722L24.5289 10.2376L29.5315 7.35662L24.5289 4.47698ZM24.0283 11.1044L21.1249 9.43262L19.0234 8.2228V13.9246L21.9262 15.5958L24.0285 16.8062V11.1044H24.0283ZM12.516 23.9536L19.8545 19.764L23.5229 17.6704L18.5234 14.792L12.7671 18.106L7.52082 21.1263L12.516 23.9536Z" fill="#FF2D20"/>
</g>
<defs>
<clipPath id="clip0_3_30">
<rect width="31.04" height="32" fill="white"/>
</clipPath>
</defs>
</svg>
