<svg width="33" height="32" viewBox="0 0 33 32" fill="none" xmlns="http://www.w3.org/2000/svg">
<path d="M16.2 23.365C23.932 23.365 30.2 20.0676 30.2 16C30.2 11.9324 23.932 8.63499 16.2 8.63499C8.46803 8.63499 2.20001 11.9324 2.20001 16C2.20001 20.0676 8.46803 23.365 16.2 23.365Z" fill="url(#paint0_radial_3_21)"/>
<path d="M16.2 22.818C23.6299 22.818 29.653 19.7655 29.653 16C29.653 12.2345 23.6299 9.18201 16.2 9.18201C8.77012 9.18201 2.74701 12.2345 2.74701 16C2.74701 19.7655 8.77012 22.818 16.2 22.818Z" fill="#6280B6"/>
<path d="M18.925 18.2L19.592 14.766C19.687 14.4721 19.7027 14.1583 19.6373 13.8564C19.572 13.5546 19.428 13.2753 19.22 13.047C18.6393 12.6347 17.9283 12.448 17.22 12.522H16.067L16.398 10.822C16.404 10.7903 16.403 10.7577 16.395 10.7265C16.387 10.6953 16.3722 10.6663 16.3516 10.6414C16.3311 10.6166 16.3054 10.5966 16.2762 10.5829C16.247 10.5691 16.2152 10.562 16.183 10.562H14.583C14.5322 10.562 14.483 10.5796 14.4437 10.6119C14.4045 10.6442 14.3777 10.6891 14.368 10.739L13.659 14.385C13.6044 13.9952 13.4389 13.6293 13.182 13.331C12.896 13.0446 12.551 12.824 12.1711 12.6847C11.7911 12.5453 11.3853 12.4905 10.982 12.524H7.9C7.8492 12.524 7.79997 12.5416 7.76075 12.5739C7.72152 12.6062 7.69475 12.6511 7.685 12.701L6.251 20.081C6.24497 20.1126 6.246 20.1452 6.25401 20.1765C6.26202 20.2077 6.27683 20.2367 6.29736 20.2616C6.31789 20.2864 6.34366 20.3064 6.37281 20.3201C6.40196 20.3338 6.43378 20.341 6.466 20.341H8.069C8.11981 20.341 8.16904 20.3234 8.20826 20.2911C8.24748 20.2588 8.27426 20.2139 8.284 20.164L8.631 18.379H9.831C10.3608 18.3931 10.8897 18.3257 11.399 18.179C11.8284 18.0369 12.2211 17.8016 12.549 17.49C12.8177 17.2453 13.047 16.9606 13.229 16.646L12.942 18.121C12.936 18.1526 12.937 18.1852 12.945 18.2165C12.953 18.2477 12.9678 18.2767 12.9884 18.3016C13.0089 18.3264 13.0347 18.3464 13.0638 18.3601C13.093 18.3738 13.1248 18.381 13.157 18.381H14.757C14.8078 18.381 14.857 18.3634 14.8963 18.3311C14.9355 18.2988 14.9623 18.2539 14.972 18.204L15.759 14.153H16.853C17.319 14.153 17.453 14.246 17.493 14.286C17.533 14.326 17.593 14.451 17.518 14.855L16.883 18.12C16.877 18.1517 16.878 18.1842 16.886 18.2155C16.894 18.2467 16.9088 18.2757 16.9294 18.3006C16.9499 18.3254 16.9757 18.3454 17.0048 18.3591C17.034 18.3728 17.0658 18.38 17.098 18.38H18.718C18.7678 18.3781 18.8155 18.3592 18.8532 18.3264C18.8908 18.2937 18.9162 18.2491 18.925 18.2ZM11.53 15.366C11.4811 15.7858 11.2818 16.1737 10.969 16.458C10.5761 16.7024 10.1153 16.8149 9.654 16.779H8.942L9.457 14.128H10.378C11.055 14.128 11.327 14.273 11.437 14.394C11.5209 14.54 11.5726 14.7023 11.5887 14.8699C11.6047 15.0376 11.5847 15.2067 11.53 15.366ZM25.746 13.332C25.46 13.0456 25.115 12.825 24.7351 12.6857C24.3551 12.5463 23.9493 12.4915 23.546 12.525H20.455C20.4042 12.525 20.355 12.5426 20.3157 12.5749C20.2765 12.6072 20.2497 12.6521 20.24 12.702L18.806 20.082C18.8 20.1137 18.801 20.1462 18.809 20.1775C18.817 20.2087 18.8318 20.2377 18.8524 20.2626C18.8729 20.2874 18.8987 20.3074 18.9278 20.3211C18.957 20.3348 18.9888 20.342 19.021 20.342H20.629C20.6798 20.342 20.729 20.3244 20.7683 20.2921C20.8075 20.2598 20.8343 20.2149 20.844 20.165L21.191 18.38H22.391C22.9208 18.3941 23.4497 18.3267 23.959 18.18C24.3884 18.0379 24.7811 17.8026 25.109 17.491C25.6705 16.985 26.0488 16.3075 26.185 15.564C26.2926 15.1837 26.3089 14.7833 26.2326 14.3955C26.1563 14.0076 25.9896 13.6433 25.746 13.332ZM24.079 15.366C24.0301 15.7858 23.8308 16.1737 23.518 16.458C23.1241 16.7027 22.6622 16.8148 22.2 16.778H21.49L22.005 14.127H22.926C23.603 14.127 23.875 14.272 23.985 14.393C24.0692 14.5391 24.1212 14.7015 24.1374 14.8693C24.1536 15.0371 24.1337 15.2065 24.079 15.366Z" fill="white"/>
<path d="M10.378 13.908C10.5938 13.8808 10.8128 13.8967 11.0223 13.9547C11.2319 14.0128 11.4279 14.1118 11.599 14.246C11.7094 14.416 11.7798 14.6087 11.8049 14.8098C11.83 15.0109 11.8092 15.2151 11.744 15.407C11.6868 15.8795 11.4584 16.3146 11.102 16.63C10.6721 16.9069 10.164 17.0367 9.654 17H8.676L9.276 13.911L10.378 13.908ZM6.461 20.124H8.069L8.45 18.162H9.827C10.3338 18.1758 10.8398 18.1114 11.327 17.971C11.7268 17.839 12.0923 17.6197 12.397 17.329C12.9243 16.8546 13.2795 16.2188 13.407 15.521C13.5079 15.174 13.5256 14.8081 13.4588 14.453C13.3919 14.0979 13.2422 13.7635 13.022 13.477C12.7564 13.2143 12.4368 13.0128 12.0853 12.8863C11.7338 12.7599 11.359 12.7117 10.987 12.745H7.9L6.461 20.124ZM14.587 10.782H16.187L15.8 12.744H17.221C17.8737 12.6757 18.5293 12.8416 19.071 13.212C19.2503 13.4158 19.3728 13.6631 19.4264 13.9292C19.4799 14.1953 19.4625 14.4707 19.376 14.728L18.709 18.162H17.09L17.725 14.897C17.7692 14.7724 17.785 14.6394 17.7712 14.5079C17.7573 14.3764 17.7142 14.2497 17.645 14.137C17.4134 13.9711 17.1274 13.8996 16.845 13.937H15.57L14.748 18.165H13.148L14.587 10.782ZM22.927 13.908C23.1428 13.8808 23.3618 13.8967 23.5713 13.9547C23.7809 14.0128 23.9769 14.1118 24.148 14.246C24.2584 14.416 24.3288 14.6087 24.3539 14.8098C24.379 15.0109 24.3582 15.2151 24.293 15.407C24.2358 15.8795 24.0074 16.3146 23.651 16.63C23.2203 16.9075 22.711 17.0374 22.2 17H21.222L21.822 13.911L22.927 13.908ZM19.01 20.124H20.618L20.999 18.162H22.376C22.8828 18.1758 23.3888 18.1114 23.876 17.971C24.2759 17.839 24.6413 17.6197 24.946 17.329C25.4733 16.8546 25.8285 16.2188 25.956 15.521C26.0569 15.174 26.0746 14.8081 26.0078 14.453C25.9409 14.0979 25.7912 13.7635 25.571 13.477C25.3054 13.2143 24.9858 13.0128 24.6343 12.8863C24.2828 12.7599 23.908 12.7117 23.536 12.745H20.444L19.01 20.124Z" fill="#000004"/>
<defs>
<radialGradient id="paint0_radial_3_21" cx="0" cy="0" r="1" gradientUnits="userSpaceOnUse" gradientTransform="translate(10.606 11.225) scale(18.384)">
<stop stop-color="white"/>
<stop offset="0.5" stop-color="#4C6B96"/>
<stop offset="1" stop-color="#231F20"/>
</radialGradient>
</defs>
</svg>
