<svg width="33" height="32" viewBox="0 0 33 32" fill="none" xmlns="http://www.w3.org/2000/svg">
<path d="M16.085 2.1C8.98501 2.1 9.43401 5.17 9.43401 5.17V8.36H16.186V9.36H6.74501C6.74501 9.36 2.20001 8.8 2.20001 16.005C2.20001 23.21 6.21301 22.917 6.21301 22.917H8.53001V19.556C8.53001 19.556 8.40001 15.543 12.43 15.543H19.192C19.192 15.543 22.964 15.603 22.964 11.891V5.8C22.964 5.8 23.536 2.088 16.122 2.088L16.085 2.1ZM12.353 4.237C12.5931 4.23094 12.8295 4.2962 13.0324 4.42453C13.2354 4.55286 13.3957 4.73849 13.4932 4.95795C13.5906 5.1774 13.6208 5.42082 13.5799 5.65743C13.539 5.89404 13.4288 6.1132 13.2634 6.2872C13.0979 6.4612 12.8845 6.58222 12.6503 6.63496C12.416 6.68771 12.1714 6.6698 11.9473 6.5835C11.7233 6.4972 11.5298 6.3464 11.3914 6.15015C11.2531 5.95391 11.176 5.72104 11.17 5.481V5.461C11.17 5.13902 11.2979 4.83024 11.5256 4.60257C11.7533 4.3749 12.062 4.247 12.384 4.247L12.353 4.237Z" fill="url(#paint0_linear_3_18)"/>
<path d="M16.285 29.91C23.385 29.91 22.936 26.83 22.936 26.83V23.65H16.185V22.65H25.655C25.655 22.65 30.2 23.158 30.2 15.995C30.2 8.832 26.187 9.083 26.187 9.083H23.84V12.4C23.84 12.4 23.97 16.413 19.94 16.413H13.175C13.175 16.413 9.39999 16.356 9.39999 20.068V26.2C9.39999 26.2 8.82799 29.912 16.242 29.912H16.282L16.285 29.91ZM20.017 27.763C19.777 27.7691 19.5405 27.7038 19.3376 27.5755C19.1346 27.4471 18.9743 27.2615 18.8768 27.0421C18.7794 26.8226 18.7492 26.5792 18.7901 26.3426C18.831 26.106 18.9412 25.8868 19.1066 25.7128C19.2721 25.5388 19.4855 25.4178 19.7197 25.365C19.954 25.3123 20.1986 25.3302 20.4227 25.4165C20.6468 25.5028 20.8402 25.6536 20.9786 25.8498C21.1169 26.0461 21.194 26.279 21.2 26.519V26.549C21.2 26.871 21.0721 27.1798 20.8444 27.4074C20.6168 27.6351 20.308 27.763 19.986 27.763H20.017Z" fill="url(#paint1_linear_3_18)"/>
<defs>
<linearGradient id="paint0_linear_3_18" x1="4.96717" y1="4.8229" x2="18.2538" y2="18.0795" gradientUnits="userSpaceOnUse">
<stop stop-color="#387EB8"/>
<stop offset="1" stop-color="#366994"/>
</linearGradient>
<linearGradient id="paint1_linear_3_18" x1="12.8275" y1="13.4586" x2="28.0077" y2="26.7111" gradientUnits="userSpaceOnUse">
<stop stop-color="#FFE052"/>
<stop offset="1" stop-color="#FFC331"/>
</linearGradient>
</defs>
</svg>
