<svg width="33" height="32" viewBox="0 0 33 32" fill="none" xmlns="http://www.w3.org/2000/svg">
<path d="M9.04004 13.7C9.97337 9.96667 12.3067 8.10001 16.04 8.10001C21.64 8.10001 22.34 12.3 25.14 13C27.0067 13.4667 28.64 12.7667 30.04 10.9C29.1067 14.6333 26.7734 16.5 23.04 16.5C17.44 16.5 16.74 12.3 13.94 11.6C12.0734 11.1333 10.44 11.8333 9.04004 13.7ZM2.04004 22.1C2.97337 18.3667 5.30671 16.5 9.04004 16.5C14.64 16.5 15.34 20.7 18.14 21.4C20.0067 21.8667 21.64 21.1667 23.04 19.3C22.1067 23.0333 19.7734 24.9 16.04 24.9C10.44 24.9 9.74004 20.7 6.94004 20C5.07337 19.5333 3.44004 20.2333 2.04004 22.1Z" fill="#44A8B3"/>
</svg>
